<svg width="12" height="12" viewBox="0 0 12 12" fill="none" xmlns="http://www.w3.org/2000/svg">
<path d="M11.25 2.25V1.5H10.125V0.75H9.375V1.5H9C8.58637 1.5 8.25 1.83675 8.25 2.25V3C8.25 3.41363 8.58637 3.75 9 3.75H10.5V4.5H8.25V5.25H9.375V6H10.125V5.25H10.5C10.9136 5.25 11.25 4.91363 11.25 4.5V3.75C11.25 3.33675 10.9136 3 10.5 3H9V2.25H11.25ZM9 7.5V8.25H9.96975L8.625 9.59475L7.7655 8.73487C7.69528 8.66464 7.60007 8.62512 7.50075 8.625H7.5C7.40068 8.62512 7.30547 8.66464 7.23525 8.73487L5.25 10.7198L5.78025 11.25L7.50037 9.53025L8.35987 10.3901C8.4302 10.4604 8.52556 10.4999 8.625 10.4999C8.72444 10.4999 8.8198 10.4604 8.89013 10.3901L10.5 8.78025V9.75H11.25V7.5H9ZM1.5 11.25H0.75V9.375C0.75 7.9275 1.9275 6.75 3.375 6.75H5.625C6.37087 6.75 7.08375 7.06875 7.58137 7.62488L7.02262 8.12512C6.84676 7.92846 6.63136 7.77113 6.39053 7.66341C6.14969 7.55569 5.88883 7.5 5.625 7.5H3.375C2.34113 7.5 1.5 8.34113 1.5 9.375V11.25ZM4.5 6C5.19619 6 5.86387 5.72344 6.35616 5.23116C6.84844 4.73887 7.125 4.07119 7.125 3.375C7.125 2.67881 6.84844 2.01113 6.35616 1.51884C5.86387 1.02656 5.19619 0.75 4.5 0.75C3.80381 0.75 3.13613 1.02656 2.64384 1.51884C2.15156 2.01113 1.875 2.67881 1.875 3.375C1.875 4.07119 2.15156 4.73887 2.64384 5.23116C3.13613 5.72344 3.80381 6 4.5 6ZM4.5 1.5C4.99728 1.5 5.47419 1.69754 5.82583 2.04917C6.17746 2.40081 6.375 2.87772 6.375 3.375C6.375 3.87228 6.17746 4.34919 5.82583 4.70083C5.47419 5.05246 4.99728 5.25 4.5 5.25C4.00272 5.25 3.52581 5.05246 3.17417 4.70083C2.82254 4.34919 2.625 3.87228 2.625 3.375C2.625 2.87772 2.82254 2.40081 3.17417 2.04917C3.52581 1.69754 4.00272 1.5 4.5 1.5Z" fill="#011627"/>
</svg>
