<svg width="24" height="24" viewBox="0 0 24 24" fill="none" xmlns="http://www.w3.org/2000/svg">
<path d="M19.5 18C20.3284 18 21 17.3284 21 16.5C21 15.6716 20.3284 15 19.5 15C18.6716 15 18 15.6716 18 16.5C18 17.3284 18.6716 18 19.5 18Z" fill="white"/>
<path d="M15 18C15.8284 18 16.5 17.3284 16.5 16.5C16.5 15.6716 15.8284 15 15 15C14.1716 15 13.5 15.6716 13.5 16.5C13.5 17.3284 14.1716 18 15 18Z" fill="white"/>
<path d="M10.5 6C11.3284 6 12 5.32843 12 4.5C12 3.67157 11.3284 3 10.5 3C9.67157 3 9 3.67157 9 4.5C9 5.32843 9.67157 6 10.5 6Z" fill="white"/>
<path d="M6 6C6.82843 6 7.5 5.32843 7.5 4.5C7.5 3.67157 6.82843 3 6 3C5.17157 3 4.5 3.67157 4.5 4.5C4.5 5.32843 5.17157 6 6 6Z" fill="white"/>
<path d="M6.1755 18C7.59246 18.0011 8.97377 17.5558 10.1233 16.7273C11.2727 15.8987 12.132 14.7291 12.579 13.3845L14.3438 8.0895C14.6913 7.04357 15.3596 6.13378 16.2537 5.48939C17.1479 4.845 18.2224 4.49881 19.3245 4.5H22.5V3H19.3245C17.9075 2.99889 16.5262 3.44422 15.3767 4.27275C14.2273 5.10127 13.368 6.27089 12.921 7.6155L11.1562 12.9105C10.8087 13.9564 10.1404 14.8662 9.24628 15.5106C8.35213 16.155 7.27765 16.5012 6.1755 16.5H3V1.5H1.5V21C1.5 21.8272 2.17275 22.5 3 22.5H22.5V21H3V18H6.1755Z" fill="white"/>
</svg>
